<svg xmlns="http://www.w3.org/2000/svg" viewBox="0 0 100 100">
  <defs>
    <linearGradient id="bg" x1="0%" y1="0%" x2="100%" y2="100%">
      <stop offset="0%" style="stop-color:#16a34a"/>
      <stop offset="100%" style="stop-color:#059669"/>
    </linearGradient>
  </defs>
  <rect width="100" height="100" rx="20" fill="url(#bg)"/>
  <g transform="translate(15, 12) scale(0.7)">
    <path d="M50 10c-8 0-15 3-20 8-3 3-5 6-6 10-5 1-10 4-13 8-4 5-6 11-5 17 0 4 2 8 4 11-2 4-3 8-2 13 1 6 4 11 9 14 3 2 7 4 11 4h2c3 4 8 7 14 8 2 0 4 0 6-1 2 1 4 1 6 1 6-1 11-4 14-8h2c4 0 8-2 11-4 5-3 8-8 9-14 1-5 0-9-2-13 2-3 4-7 4-11 1-6-1-12-5-17-3-4-8-7-13-8-1-4-3-7-6-10-5-5-12-8-20-8z" fill="white" opacity="0.95"/>
    <path d="M50 18c-6 0-11 2-15 6-2 3-4 6-4 9v2l-2 1c-4 1-7 3-9 6-3 4-4 8-4 13 0 3 1 5 3 8l2 2-1 3c-1 3-2 6-1 10 1 4 3 8 6 10 2 2 5 3 8 3h4l2 2c3 3 6 5 10 6 2 0 3 0 5-1h2c2 1 3 1 5 1 4-1 7-3 10-6l2-2h4c3 0 6-1 8-3 3-2 5-6 6-10 1-4 0-7-1-10l-1-3 2-2c2-3 3-5 3-8 0-5-1-9-4-13-2-3-5-5-9-6l-2-1v-2c0-3-2-6-4-9-4-4-9-6-15-6z" fill="url(#bg)"/>
    <path d="M50 25c0 0 0 45 0 45" stroke="white" stroke-width="2" opacity="0.6"/>
    <path d="M38 35c-4 2-6 6-6 10" stroke="white" stroke-width="2" fill="none" opacity="0.5" stroke-linecap="round"/>
    <path d="M62 35c4 2 6 6 6 10" stroke="white" stroke-width="2" fill="none" opacity="0.5" stroke-linecap="round"/>
    <path d="M40 50c-3 2-5 5-5 9" stroke="white" stroke-width="2" fill="none" opacity="0.5" stroke-linecap="round"/>
    <path d="M60 50c3 2 5 5 5 9" stroke="white" stroke-width="2" fill="none" opacity="0.5" stroke-linecap="round"/>
  </g>
</svg>
